<mxfile host="app.diagrams.net" agent="Mozilla/5.0 (Windows NT 10.0; Win64; x64) AppleWebKit/537.36 (KHTML, like Gecko) Chrome/130.0.0.0 Safari/537.36" version="24.8.4">
  <diagram name="Trang-1" id="hdt0kNwCUX93PKICMKYl">
    <mxGraphModel dx="2580" dy="1114" grid="1" gridSize="10" guides="1" tooltips="1" connect="1" arrows="1" fold="1" page="1" pageScale="1" pageWidth="827" pageHeight="1169" math="0" shadow="0">
      <root>
        <mxCell id="0" />
        <mxCell id="1" parent="0" />
        <mxCell id="uMrHDG3yBGKmnmMAJlSV-4" value="" style="rounded=0;whiteSpace=wrap;html=1;rotation=90;" parent="1" vertex="1">
          <mxGeometry x="50.01" y="221.25" width="1014.37" height="704.38" as="geometry" />
        </mxCell>
        <mxCell id="mY8F6x1bd3g9hpZfZyls-1" value="&lt;font style=&quot;font-size: 18px;&quot;&gt;Hệ thống Website quản lý du lịch&lt;/font&gt;" style="text;strokeColor=none;align=center;fillColor=none;html=1;verticalAlign=middle;whiteSpace=wrap;rounded=0;" vertex="1" parent="1">
          <mxGeometry x="371.25" y="90" width="310" height="30" as="geometry" />
        </mxCell>
        <mxCell id="mY8F6x1bd3g9hpZfZyls-2" value="Khách vãng lai" style="shape=umlActor;verticalLabelPosition=bottom;verticalAlign=top;html=1;" vertex="1" parent="1">
          <mxGeometry x="100" y="160" width="40" height="80" as="geometry" />
        </mxCell>
        <mxCell id="mY8F6x1bd3g9hpZfZyls-7" value="Khách hàng" style="shape=umlActor;verticalLabelPosition=bottom;verticalAlign=top;html=1;" vertex="1" parent="1">
          <mxGeometry x="100" y="480" width="40" height="80" as="geometry" />
        </mxCell>
        <mxCell id="mY8F6x1bd3g9hpZfZyls-8" value="&lt;font style=&quot;font-size: 14px;&quot;&gt;Tìm kiếm tour&lt;/font&gt;" style="ellipse;whiteSpace=wrap;html=1;" vertex="1" parent="1">
          <mxGeometry x="260" y="160" width="140" height="70" as="geometry" />
        </mxCell>
        <mxCell id="mY8F6x1bd3g9hpZfZyls-9" value="&lt;font style=&quot;font-size: 14px;&quot;&gt;Xem thông tin tour&lt;/font&gt;" style="ellipse;whiteSpace=wrap;html=1;" vertex="1" parent="1">
          <mxGeometry x="260" y="295" width="140" height="70" as="geometry" />
        </mxCell>
        <mxCell id="mY8F6x1bd3g9hpZfZyls-10" value="&lt;span style=&quot;font-size: 14px;&quot;&gt;Đặt Tour&lt;/span&gt;" style="ellipse;whiteSpace=wrap;html=1;" vertex="1" parent="1">
          <mxGeometry x="260" y="440" width="140" height="70" as="geometry" />
        </mxCell>
        <mxCell id="mY8F6x1bd3g9hpZfZyls-11" value="&lt;span style=&quot;font-size: 14px;&quot;&gt;Thanh toán đơn đặt tour&lt;/span&gt;" style="ellipse;whiteSpace=wrap;html=1;" vertex="1" parent="1">
          <mxGeometry x="260" y="584.5" width="140" height="70" as="geometry" />
        </mxCell>
        <mxCell id="mY8F6x1bd3g9hpZfZyls-12" value="&lt;span style=&quot;font-size: 14px;&quot;&gt;Theo dõi trạng thái đơn&lt;/span&gt;" style="ellipse;whiteSpace=wrap;html=1;" vertex="1" parent="1">
          <mxGeometry x="260" y="720" width="140" height="70" as="geometry" />
        </mxCell>
        <mxCell id="mY8F6x1bd3g9hpZfZyls-13" value="&lt;span style=&quot;font-size: 14px;&quot;&gt;Quản lý tài khoản người dùng&lt;/span&gt;" style="ellipse;whiteSpace=wrap;html=1;" vertex="1" parent="1">
          <mxGeometry x="260" y="860" width="140" height="70" as="geometry" />
        </mxCell>
        <mxCell id="mY8F6x1bd3g9hpZfZyls-14" value="&lt;span style=&quot;font-size: 14px;&quot;&gt;Đăng nhập&lt;/span&gt;" style="ellipse;whiteSpace=wrap;html=1;" vertex="1" parent="1">
          <mxGeometry x="480" y="507.5" width="140" height="70" as="geometry" />
        </mxCell>
        <mxCell id="mY8F6x1bd3g9hpZfZyls-15" value="" style="endArrow=open;endFill=1;endSize=12;html=1;rounded=0;exitX=1;exitY=0.3333333333333333;exitDx=0;exitDy=0;exitPerimeter=0;" edge="1" parent="1" source="mY8F6x1bd3g9hpZfZyls-2">
          <mxGeometry width="160" relative="1" as="geometry">
            <mxPoint x="120" y="194.5" as="sourcePoint" />
            <mxPoint x="260" y="195" as="targetPoint" />
          </mxGeometry>
        </mxCell>
        <mxCell id="mY8F6x1bd3g9hpZfZyls-16" value="" style="endArrow=open;endFill=1;endSize=12;html=1;rounded=0;entryX=0;entryY=0.5;entryDx=0;entryDy=0;exitX=1;exitY=0.3333333333333333;exitDx=0;exitDy=0;exitPerimeter=0;" edge="1" parent="1" source="mY8F6x1bd3g9hpZfZyls-2" target="mY8F6x1bd3g9hpZfZyls-9">
          <mxGeometry width="160" relative="1" as="geometry">
            <mxPoint x="140" y="190" as="sourcePoint" />
            <mxPoint x="270" y="205" as="targetPoint" />
          </mxGeometry>
        </mxCell>
        <mxCell id="mY8F6x1bd3g9hpZfZyls-17" value="" style="endArrow=open;endFill=1;endSize=12;html=1;rounded=0;entryX=0;entryY=0.5;entryDx=0;entryDy=0;exitX=1;exitY=0.3333333333333333;exitDx=0;exitDy=0;exitPerimeter=0;" edge="1" parent="1" source="mY8F6x1bd3g9hpZfZyls-7" target="mY8F6x1bd3g9hpZfZyls-10">
          <mxGeometry width="160" relative="1" as="geometry">
            <mxPoint x="160" y="417" as="sourcePoint" />
            <mxPoint x="280" y="560" as="targetPoint" />
          </mxGeometry>
        </mxCell>
        <mxCell id="mY8F6x1bd3g9hpZfZyls-19" value="&amp;lt;&amp;lt;include&amp;gt;&amp;gt;" style="html=1;verticalAlign=bottom;labelBackgroundColor=none;endArrow=open;endFill=0;dashed=1;rounded=0;exitX=1;exitY=0.5;exitDx=0;exitDy=0;entryX=0;entryY=0.5;entryDx=0;entryDy=0;" edge="1" parent="1" source="mY8F6x1bd3g9hpZfZyls-10" target="mY8F6x1bd3g9hpZfZyls-14">
          <mxGeometry width="160" relative="1" as="geometry">
            <mxPoint x="340" y="450" as="sourcePoint" />
            <mxPoint x="340" y="375" as="targetPoint" />
          </mxGeometry>
        </mxCell>
        <mxCell id="mY8F6x1bd3g9hpZfZyls-20" value="&amp;lt;&amp;lt;include&amp;gt;&amp;gt;" style="html=1;verticalAlign=bottom;labelBackgroundColor=none;endArrow=open;endFill=0;dashed=1;rounded=0;exitX=0.5;exitY=0;exitDx=0;exitDy=0;entryX=0.5;entryY=1;entryDx=0;entryDy=0;" edge="1" parent="1" source="mY8F6x1bd3g9hpZfZyls-11" target="mY8F6x1bd3g9hpZfZyls-10">
          <mxGeometry width="160" relative="1" as="geometry">
            <mxPoint x="350" y="460" as="sourcePoint" />
            <mxPoint x="350" y="385" as="targetPoint" />
          </mxGeometry>
        </mxCell>
        <mxCell id="mY8F6x1bd3g9hpZfZyls-21" value="&amp;lt;&amp;lt;extend&amp;gt;&amp;gt;" style="html=1;verticalAlign=bottom;labelBackgroundColor=none;endArrow=open;endFill=0;dashed=1;rounded=0;entryX=0.5;entryY=1;entryDx=0;entryDy=0;exitX=0.5;exitY=0;exitDx=0;exitDy=0;" edge="1" parent="1" source="mY8F6x1bd3g9hpZfZyls-10" target="mY8F6x1bd3g9hpZfZyls-9">
          <mxGeometry width="160" relative="1" as="geometry">
            <mxPoint x="230" y="400" as="sourcePoint" />
            <mxPoint x="390" y="400" as="targetPoint" />
          </mxGeometry>
        </mxCell>
        <mxCell id="mY8F6x1bd3g9hpZfZyls-22" value="&amp;lt;&amp;lt;include&amp;gt;&amp;gt;" style="html=1;verticalAlign=bottom;labelBackgroundColor=none;endArrow=open;endFill=0;dashed=1;rounded=0;entryX=0.5;entryY=1;entryDx=0;entryDy=0;" edge="1" parent="1" source="mY8F6x1bd3g9hpZfZyls-12" target="mY8F6x1bd3g9hpZfZyls-11">
          <mxGeometry width="160" relative="1" as="geometry">
            <mxPoint x="340" y="595" as="sourcePoint" />
            <mxPoint x="340" y="520" as="targetPoint" />
          </mxGeometry>
        </mxCell>
        <mxCell id="mY8F6x1bd3g9hpZfZyls-23" value="&amp;lt;&amp;lt;include&amp;gt;&amp;gt;" style="html=1;verticalAlign=bottom;labelBackgroundColor=none;endArrow=open;endFill=0;dashed=1;rounded=0;exitX=1;exitY=0;exitDx=0;exitDy=0;entryX=0.5;entryY=1;entryDx=0;entryDy=0;" edge="1" parent="1" source="mY8F6x1bd3g9hpZfZyls-13" target="mY8F6x1bd3g9hpZfZyls-14">
          <mxGeometry width="160" relative="1" as="geometry">
            <mxPoint x="350" y="605" as="sourcePoint" />
            <mxPoint x="350" y="530" as="targetPoint" />
          </mxGeometry>
        </mxCell>
        <mxCell id="mY8F6x1bd3g9hpZfZyls-24" value="Nhân viên&lt;div&gt;&lt;br&gt;&lt;/div&gt;" style="shape=umlActor;verticalLabelPosition=bottom;verticalAlign=top;html=1;" vertex="1" parent="1">
          <mxGeometry x="993.75" y="200" width="40" height="80" as="geometry" />
        </mxCell>
        <mxCell id="mY8F6x1bd3g9hpZfZyls-27" value="" style="endArrow=open;endFill=1;endSize=12;html=1;rounded=0;entryX=0;entryY=0.5;entryDx=0;entryDy=0;exitX=1;exitY=0.3333333333333333;exitDx=0;exitDy=0;exitPerimeter=0;" edge="1" parent="1" source="mY8F6x1bd3g9hpZfZyls-7" target="mY8F6x1bd3g9hpZfZyls-11">
          <mxGeometry width="160" relative="1" as="geometry">
            <mxPoint x="150" y="517" as="sourcePoint" />
            <mxPoint x="270" y="485" as="targetPoint" />
          </mxGeometry>
        </mxCell>
        <mxCell id="mY8F6x1bd3g9hpZfZyls-28" value="" style="endArrow=open;endFill=1;endSize=12;html=1;rounded=0;entryX=0;entryY=0.5;entryDx=0;entryDy=0;" edge="1" parent="1" target="mY8F6x1bd3g9hpZfZyls-12">
          <mxGeometry width="160" relative="1" as="geometry">
            <mxPoint x="140" y="510" as="sourcePoint" />
            <mxPoint x="280" y="495" as="targetPoint" />
          </mxGeometry>
        </mxCell>
        <mxCell id="mY8F6x1bd3g9hpZfZyls-29" value="" style="endArrow=open;endFill=1;endSize=12;html=1;rounded=0;entryX=1;entryY=0.5;entryDx=0;entryDy=0;exitX=0.5;exitY=0.5;exitDx=0;exitDy=0;exitPerimeter=0;" edge="1" parent="1" source="mY8F6x1bd3g9hpZfZyls-48" target="mY8F6x1bd3g9hpZfZyls-13">
          <mxGeometry width="160" relative="1" as="geometry">
            <mxPoint x="600" y="819.9966666666667" as="sourcePoint" />
            <mxPoint x="720" y="1208.3300000000002" as="targetPoint" />
          </mxGeometry>
        </mxCell>
        <mxCell id="mY8F6x1bd3g9hpZfZyls-30" value="&lt;font style=&quot;font-size: 14px;&quot;&gt;Cập nhật danh sách tour, khách sạn&lt;/font&gt;" style="ellipse;whiteSpace=wrap;html=1;" vertex="1" parent="1">
          <mxGeometry x="720" y="170" width="140" height="70" as="geometry" />
        </mxCell>
        <mxCell id="mY8F6x1bd3g9hpZfZyls-31" value="&lt;font style=&quot;font-size: 14px;&quot;&gt;Cập nhật chương trình khuyến mãi&lt;/font&gt;" style="ellipse;whiteSpace=wrap;html=1;" vertex="1" parent="1">
          <mxGeometry x="720" y="300" width="140" height="70" as="geometry" />
        </mxCell>
        <mxCell id="mY8F6x1bd3g9hpZfZyls-32" value="&amp;lt;&amp;lt;include&amp;gt;&amp;gt;" style="html=1;verticalAlign=bottom;labelBackgroundColor=none;endArrow=open;endFill=0;dashed=1;rounded=0;exitX=0;exitY=0.5;exitDx=0;exitDy=0;entryX=0.5;entryY=0;entryDx=0;entryDy=0;" edge="1" parent="1" source="mY8F6x1bd3g9hpZfZyls-30" target="mY8F6x1bd3g9hpZfZyls-14">
          <mxGeometry width="160" relative="1" as="geometry">
            <mxPoint x="410" y="485" as="sourcePoint" />
            <mxPoint x="490" y="553" as="targetPoint" />
          </mxGeometry>
        </mxCell>
        <mxCell id="mY8F6x1bd3g9hpZfZyls-33" value="&amp;lt;&amp;lt;include&amp;gt;&amp;gt;" style="html=1;verticalAlign=bottom;labelBackgroundColor=none;endArrow=open;endFill=0;dashed=1;rounded=0;exitX=0;exitY=1;exitDx=0;exitDy=0;" edge="1" parent="1" source="mY8F6x1bd3g9hpZfZyls-31">
          <mxGeometry width="160" relative="1" as="geometry">
            <mxPoint x="660" y="225" as="sourcePoint" />
            <mxPoint x="550" y="510" as="targetPoint" />
          </mxGeometry>
        </mxCell>
        <mxCell id="mY8F6x1bd3g9hpZfZyls-34" value="&lt;font style=&quot;font-size: 14px;&quot;&gt;Xác nhận đơn hàng của khách hàng&lt;/font&gt;" style="ellipse;whiteSpace=wrap;html=1;" vertex="1" parent="1">
          <mxGeometry x="730" y="560" width="140" height="70" as="geometry" />
        </mxCell>
        <mxCell id="mY8F6x1bd3g9hpZfZyls-37" value="&amp;lt;&amp;lt;include&amp;gt;&amp;gt;" style="html=1;verticalAlign=bottom;labelBackgroundColor=none;endArrow=open;endFill=0;dashed=1;rounded=0;exitX=0;exitY=0.5;exitDx=0;exitDy=0;entryX=1;entryY=0.5;entryDx=0;entryDy=0;" edge="1" parent="1" source="mY8F6x1bd3g9hpZfZyls-34" target="mY8F6x1bd3g9hpZfZyls-14">
          <mxGeometry width="160" relative="1" as="geometry">
            <mxPoint x="751" y="370" as="sourcePoint" />
            <mxPoint x="560" y="520" as="targetPoint" />
          </mxGeometry>
        </mxCell>
        <mxCell id="mY8F6x1bd3g9hpZfZyls-39" value="&amp;lt;&amp;lt;include&amp;gt;&amp;gt;" style="html=1;verticalAlign=bottom;labelBackgroundColor=none;endArrow=open;endFill=0;dashed=1;rounded=0;exitX=0;exitY=0.5;exitDx=0;exitDy=0;entryX=1;entryY=0.5;entryDx=0;entryDy=0;" edge="1" parent="1" source="mY8F6x1bd3g9hpZfZyls-34" target="mY8F6x1bd3g9hpZfZyls-11">
          <mxGeometry width="160" relative="1" as="geometry">
            <mxPoint x="740" y="605" as="sourcePoint" />
            <mxPoint x="630" y="553" as="targetPoint" />
          </mxGeometry>
        </mxCell>
        <mxCell id="mY8F6x1bd3g9hpZfZyls-40" value="" style="endArrow=open;endFill=1;endSize=12;html=1;rounded=0;exitX=0.5;exitY=0.5;exitDx=0;exitDy=0;exitPerimeter=0;entryX=1;entryY=0.5;entryDx=0;entryDy=0;" edge="1" parent="1" source="mY8F6x1bd3g9hpZfZyls-24" target="mY8F6x1bd3g9hpZfZyls-30">
          <mxGeometry width="160" relative="1" as="geometry">
            <mxPoint x="827" y="270" as="sourcePoint" />
            <mxPoint x="947" y="278" as="targetPoint" />
          </mxGeometry>
        </mxCell>
        <mxCell id="mY8F6x1bd3g9hpZfZyls-42" value="" style="endArrow=open;endFill=1;endSize=12;html=1;rounded=0;exitX=0.5;exitY=0.5;exitDx=0;exitDy=0;exitPerimeter=0;entryX=0.972;entryY=0.401;entryDx=0;entryDy=0;entryPerimeter=0;" edge="1" parent="1" source="mY8F6x1bd3g9hpZfZyls-24" target="mY8F6x1bd3g9hpZfZyls-31">
          <mxGeometry width="160" relative="1" as="geometry">
            <mxPoint x="1024" y="250" as="sourcePoint" />
            <mxPoint x="870" y="215" as="targetPoint" />
          </mxGeometry>
        </mxCell>
        <mxCell id="mY8F6x1bd3g9hpZfZyls-43" value="" style="endArrow=open;endFill=1;endSize=12;html=1;rounded=0;exitX=0.5;exitY=0.5;exitDx=0;exitDy=0;exitPerimeter=0;entryX=0.5;entryY=0;entryDx=0;entryDy=0;" edge="1" parent="1" source="mY8F6x1bd3g9hpZfZyls-24" target="mY8F6x1bd3g9hpZfZyls-34">
          <mxGeometry width="160" relative="1" as="geometry">
            <mxPoint x="1024" y="250" as="sourcePoint" />
            <mxPoint x="866" y="338" as="targetPoint" />
          </mxGeometry>
        </mxCell>
        <mxCell id="mY8F6x1bd3g9hpZfZyls-44" value="&lt;font style=&quot;font-size: 14px;&quot;&gt;Xem báo cáo doanh thu&lt;/font&gt;" style="ellipse;whiteSpace=wrap;html=1;" vertex="1" parent="1">
          <mxGeometry x="730" y="710" width="140" height="70" as="geometry" />
        </mxCell>
        <mxCell id="mY8F6x1bd3g9hpZfZyls-45" value="&amp;lt;&amp;lt;include&amp;gt;&amp;gt;" style="html=1;verticalAlign=bottom;labelBackgroundColor=none;endArrow=open;endFill=0;dashed=1;rounded=0;exitX=0;exitY=0;exitDx=0;exitDy=0;entryX=1;entryY=1;entryDx=0;entryDy=0;" edge="1" parent="1" source="mY8F6x1bd3g9hpZfZyls-44" target="mY8F6x1bd3g9hpZfZyls-14">
          <mxGeometry width="160" relative="1" as="geometry">
            <mxPoint x="740" y="605" as="sourcePoint" />
            <mxPoint x="630" y="553" as="targetPoint" />
          </mxGeometry>
        </mxCell>
        <mxCell id="mY8F6x1bd3g9hpZfZyls-46" value="&lt;font style=&quot;font-size: 14px;&quot;&gt;Xem báo cáo tồn kho&lt;/font&gt;" style="ellipse;whiteSpace=wrap;html=1;" vertex="1" parent="1">
          <mxGeometry x="730" y="890" width="140" height="70" as="geometry" />
        </mxCell>
        <mxCell id="mY8F6x1bd3g9hpZfZyls-47" value="&amp;lt;&amp;lt;include&amp;gt;&amp;gt;" style="html=1;verticalAlign=bottom;labelBackgroundColor=none;endArrow=open;endFill=0;dashed=1;rounded=0;exitX=0;exitY=0;exitDx=0;exitDy=0;entryX=0.7;entryY=0.914;entryDx=0;entryDy=0;entryPerimeter=0;" edge="1" parent="1" source="mY8F6x1bd3g9hpZfZyls-46" target="mY8F6x1bd3g9hpZfZyls-14">
          <mxGeometry width="160" relative="1" as="geometry">
            <mxPoint x="761" y="730" as="sourcePoint" />
            <mxPoint x="609" y="577" as="targetPoint" />
          </mxGeometry>
        </mxCell>
        <mxCell id="mY8F6x1bd3g9hpZfZyls-48" value="&lt;div&gt;Admin&lt;/div&gt;" style="shape=umlActor;verticalLabelPosition=bottom;verticalAlign=top;html=1;" vertex="1" parent="1">
          <mxGeometry x="980" y="980" width="40" height="80" as="geometry" />
        </mxCell>
        <mxCell id="mY8F6x1bd3g9hpZfZyls-50" value="" style="endArrow=open;endFill=1;endSize=12;html=1;rounded=0;entryX=0;entryY=0;entryDx=0;entryDy=0;exitX=1;exitY=0.3333333333333333;exitDx=0;exitDy=0;exitPerimeter=0;" edge="1" parent="1" target="mY8F6x1bd3g9hpZfZyls-13">
          <mxGeometry width="160" relative="1" as="geometry">
            <mxPoint x="150" y="517" as="sourcePoint" />
            <mxPoint x="270" y="905" as="targetPoint" />
          </mxGeometry>
        </mxCell>
        <mxCell id="mY8F6x1bd3g9hpZfZyls-51" value="" style="endArrow=open;endFill=1;endSize=12;html=1;rounded=0;entryX=1;entryY=0.5;entryDx=0;entryDy=0;exitX=0.5;exitY=0.5;exitDx=0;exitDy=0;exitPerimeter=0;" edge="1" parent="1" source="mY8F6x1bd3g9hpZfZyls-48" target="mY8F6x1bd3g9hpZfZyls-44">
          <mxGeometry width="160" relative="1" as="geometry">
            <mxPoint x="1010" y="1030" as="sourcePoint" />
            <mxPoint x="410" y="905" as="targetPoint" />
          </mxGeometry>
        </mxCell>
        <mxCell id="mY8F6x1bd3g9hpZfZyls-52" value="" style="endArrow=open;endFill=1;endSize=12;html=1;rounded=0;entryX=1;entryY=0.5;entryDx=0;entryDy=0;" edge="1" parent="1" target="mY8F6x1bd3g9hpZfZyls-46">
          <mxGeometry width="160" relative="1" as="geometry">
            <mxPoint x="1000" y="1020" as="sourcePoint" />
            <mxPoint x="880" y="755" as="targetPoint" />
          </mxGeometry>
        </mxCell>
      </root>
    </mxGraphModel>
  </diagram>
</mxfile>
